# xmcd CD database file
#
# Track frame offsets:
#	182
#	31607
#	65357
#	94757
#	125807
#	166007
#	207032
#	239170
#	287020
#
# Disc length: 3974 seconds
#
# Revision: 3
# Processed by: cddbd v1.5.2PL0 Copyright (c) Steve Scherf et al.
# Submitted via: CDex 1.97
#
DISCID=780f8409
DTITLE=Ferenc Fricsay and RIAS-Symphonie-Orchester Berlin - Bela Bartok (1881-1945)
DYEAR=1953
DGENRE=Instrumental
TTITLE0=Musique for Strings, Percussion and Celesta - I. Andante tranquilo
TTITLE1=Musique for Strings, Percussion and Celesta - II. Allegro
TTITLE2=Musique for Strings, Percussion and Celesta - III. Adagio
TTITLE3=Musique for Strings, Percussion and Celesta - IV. Allegro molto
TTITLE4=Divertimento for String Orchestra Sz 113 - I. allegro non troppo
TTITLE5=Divertimento for String Orchestra Sz 113 - II. Molto adagio
TTITLE6=Divertimento for String Orchestra Sz 113 - III. Allegro assai
TTITLE7=Two Portraits (One Ideal - One Grotesque) - I. Andante
TTITLE8=Two Portraits (One Ideal - One Grotesque) - II. Presto
EXTD=YEAR: 1953
EXTT0=
EXTT1=
EXTT2=
EXTT3=
EXTT4=
EXTT5=
EXTT6=
EXTT7=
EXTT8=
PLAYORDER=
